# xmcd CD database file
#
# Track frame offsets:
#	150
#	23868
#	31973
#
# Disc length: 678 seconds
#
# Revision: 0
# Processed by: cddbd v1.5.2PL0 Copyright (c) Steve Scherf et al.
# Submitted via: CDex 1.70beta3
#
DISCID=1a02a403
DTITLE=Galileo Galilei - 明日へ
DYEAR=1900
DGENRE=ロック
TTITLE0=明日へ
TTITLE1=ぷにぷにわんちゃん
TTITLE2=マーブル
EXTD=
EXTT0=
EXTT1=
EXTT2=
PLAYORDER=
